<svg width="61" height="43" viewBox="0 0 61 43" fill="none" xmlns="http://www.w3.org/2000/svg">
<g clip-path="url(#clip0_109_58)">
<path d="M1.6935 26.6139C1.6455 26.6019 1.5955 26.5909 1.5435 26.5809C1.4975 26.5709 1.4445 26.5629 1.3845 26.5569C1.3265 26.5489 1.2655 26.5449 1.2015 26.5449C1.0535 26.5449 0.9475 26.5679 0.8835 26.6139C0.8195 26.6579 0.7875 26.7269 0.7875 26.8209C0.7895 26.8949 0.8165 26.9579 0.8685 27.0099C0.9205 27.0599 0.9855 27.1069 1.0635 27.1509C1.1415 27.1929 1.2265 27.2349 1.3185 27.2769C1.4125 27.3169 1.4985 27.3639 1.5765 27.4179C1.6545 27.4699 1.7195 27.5319 1.7715 27.6039C1.8255 27.6739 1.8525 27.7599 1.8525 27.8619C1.8525 27.9799 1.8265 28.0749 1.7745 28.1469C1.7245 28.2189 1.6605 28.2749 1.5825 28.3149C1.5045 28.3549 1.4185 28.3819 1.3245 28.3959C1.2325 28.4099 1.1445 28.4169 1.0605 28.4169C0.9805 28.4169 0.9075 28.4119 0.8415 28.4019C0.7755 28.3919 0.7185 28.3809 0.6705 28.3689C0.6145 28.3549 0.5635 28.3389 0.5175 28.3209L0.5775 28.0779C0.6235 28.0979 0.6725 28.1149 0.7245 28.1289C0.7705 28.1409 0.8215 28.1519 0.8775 28.1619C0.9355 28.1719 0.9965 28.1769 1.0605 28.1769C1.1385 28.1769 1.2095 28.1719 1.2735 28.1619C1.3395 28.1519 1.3965 28.1359 1.4445 28.1139C1.4925 28.0919 1.5295 28.0629 1.5555 28.0269C1.5835 27.9909 1.5975 27.9469 1.5975 27.8949C1.5955 27.8169 1.5695 27.7539 1.5195 27.7059C1.4715 27.6559 1.4065 27.6089 1.3245 27.5649C1.2445 27.5189 1.1575 27.4749 1.0635 27.4329C0.9715 27.3909 0.8865 27.3429 0.8085 27.2889C0.7305 27.2349 0.6645 27.1709 0.6105 27.0969C0.5585 27.0229 0.5325 26.9309 0.5325 26.8209C0.5325 26.7569 0.5435 26.6939 0.5655 26.6319C0.5875 26.5699 0.6245 26.5149 0.6765 26.4669C0.7305 26.4189 0.7995 26.3799 0.8835 26.3499C0.9695 26.3199 1.0755 26.3049 1.2015 26.3049C1.2735 26.3049 1.3415 26.3089 1.4055 26.3169C1.4715 26.3229 1.5285 26.3299 1.5765 26.3379C1.6325 26.3479 1.6855 26.3589 1.7355 26.3709L1.6935 26.6139ZM3.6656 26.3319H4.9196V26.5629H3.9176V27.2169H4.8476V27.4419H3.9176V28.1469H4.9496V28.3779H3.6656V26.3319ZM6.79896 26.3319H7.30296C7.41296 26.3319 7.51296 26.3419 7.60296 26.3619C7.69496 26.3799 7.77296 26.4119 7.83696 26.4579C7.90096 26.5019 7.94996 26.5609 7.98396 26.6349C8.01796 26.7089 8.03496 26.8019 8.03496 26.9139C8.03296 27.0379 8.01196 27.1389 7.97196 27.2169C7.93196 27.2929 7.88296 27.3549 7.82496 27.4029C7.76696 27.4489 7.69996 27.4829 7.62396 27.5049V27.5109C7.63196 27.5189 7.64396 27.5339 7.65996 27.5559C7.67796 27.5759 7.69296 27.5939 7.70496 27.6099L8.28396 28.3779H7.98696L7.39296 27.5649H7.05096V28.3779H6.79896V26.3319ZM7.77996 26.9559C7.77996 26.8719 7.76896 26.8039 7.74696 26.7519C7.72696 26.6979 7.69596 26.6569 7.65396 26.6289C7.61396 26.6009 7.56396 26.5819 7.50396 26.5719C7.44396 26.5619 7.37596 26.5569 7.29996 26.5569H7.05096V27.3399H7.34796C7.42596 27.3399 7.49196 27.3299 7.54596 27.3099C7.59996 27.2899 7.64396 27.2629 7.67796 27.2289C7.71196 27.1929 7.73696 27.1519 7.75296 27.1059C7.76896 27.0599 7.77796 27.0099 7.77996 26.9559ZM9.74576 26.3319H10.0008L10.5888 28.1379H10.5918L11.1708 26.3319H11.4258L10.7448 28.3779H10.4268L9.74576 26.3319ZM13.1829 26.3319H13.4349V28.3779H13.1829V26.3319ZM16.7942 26.6199C16.7442 26.6039 16.6912 26.5899 16.6352 26.5779C16.5792 26.5639 16.5172 26.5529 16.4492 26.5449C16.3832 26.5349 16.3132 26.5299 16.2392 26.5299C16.1192 26.5299 16.0172 26.5559 15.9332 26.6079C15.8492 26.6599 15.7802 26.7269 15.7262 26.8089C15.6742 26.8889 15.6362 26.9789 15.6122 27.0789C15.5882 27.1789 15.5762 27.2779 15.5762 27.3759C15.5762 27.4999 15.5932 27.6129 15.6272 27.7149C15.6632 27.8149 15.7112 27.9009 15.7712 27.9729C15.8332 28.0429 15.9042 28.0969 15.9842 28.1349C16.0662 28.1729 16.1522 28.1919 16.2422 28.1919C16.3262 28.1919 16.4032 28.1879 16.4732 28.1799C16.5432 28.1699 16.6032 28.1599 16.6532 28.1499C16.7112 28.1379 16.7632 28.1239 16.8092 28.1079L16.8602 28.3209C16.8062 28.3389 16.7462 28.3549 16.6802 28.3689C16.6242 28.3809 16.5592 28.3919 16.4852 28.4019C16.4112 28.4119 16.3302 28.4169 16.2422 28.4169C16.0842 28.4169 15.9452 28.3909 15.8252 28.3389C15.7072 28.2869 15.6082 28.2149 15.5282 28.1229C15.4502 28.0289 15.3912 27.9189 15.3512 27.7929C15.3112 27.6649 15.2912 27.5249 15.2912 27.3729C15.2912 27.1989 15.3152 27.0459 15.3632 26.9139C15.4112 26.7799 15.4772 26.6679 15.5612 26.5779C15.6452 26.4879 15.7452 26.4199 15.8612 26.3739C15.9772 26.3279 16.1042 26.3049 16.2422 26.3049C16.3262 26.3049 16.4042 26.3099 16.4762 26.3199C16.5502 26.3279 16.6172 26.3389 16.6772 26.3529C16.7392 26.3669 16.7962 26.3819 16.8482 26.3979L16.7942 26.6199ZM18.6644 26.3319H18.9164V28.3779H18.6644V26.3319ZM20.7727 27.3549C20.7727 27.1609 20.8027 26.9969 20.8627 26.8629C20.9247 26.7289 21.0027 26.6209 21.0967 26.5389C21.1927 26.4569 21.2987 26.3979 21.4147 26.3619C21.5327 26.3239 21.6477 26.3049 21.7597 26.3049C21.8717 26.3049 21.9857 26.3209 22.1017 26.3529C22.2197 26.3829 22.3257 26.4379 22.4197 26.5179C22.5157 26.5959 22.5937 26.7029 22.6537 26.8389C22.7157 26.9749 22.7467 27.1479 22.7467 27.3579C22.7467 27.5539 22.7157 27.7189 22.6537 27.8529C22.5937 27.9869 22.5157 28.0959 22.4197 28.1799C22.3257 28.2639 22.2197 28.3249 22.1017 28.3629C21.9857 28.3989 21.8717 28.4169 21.7597 28.4169C21.6477 28.4169 21.5327 28.3989 21.4147 28.3629C21.2987 28.3269 21.1927 28.2679 21.0967 28.1859C21.0027 28.1039 20.9247 27.9949 20.8627 27.8589C20.8027 27.7229 20.7727 27.5549 20.7727 27.3549ZM22.4617 27.3699C22.4617 27.0999 22.3987 26.8949 22.2727 26.7549C22.1487 26.6149 21.9817 26.5449 21.7717 26.5449C21.6657 26.5449 21.5687 26.5619 21.4807 26.5959C21.3947 26.6279 21.3197 26.6769 21.2557 26.7429C21.1937 26.8089 21.1447 26.8919 21.1087 26.9919C21.0747 27.0899 21.0577 27.2059 21.0577 27.3399C21.0577 27.6099 21.1197 27.8169 21.2437 27.9609C21.3697 28.1049 21.5377 28.1769 21.7477 28.1769C21.8517 28.1769 21.9477 28.1609 22.0357 28.1289C22.1237 28.0949 22.1987 28.0439 22.2607 27.9759C22.3247 27.9079 22.3737 27.8239 22.4077 27.7239C22.4437 27.6239 22.4617 27.5059 22.4617 27.3699ZM25.65 26.6139C25.602 26.6019 25.552 26.5909 25.5 26.5809C25.454 26.5709 25.401 26.5629 25.341 26.5569C25.283 26.5489 25.222 26.5449 25.158 26.5449C25.01 26.5449 24.904 26.5679 24.84 26.6139C24.776 26.6579 24.744 26.7269 24.744 26.8209C24.746 26.8949 24.773 26.9579 24.825 27.0099C24.877 27.0599 24.942 27.1069 25.02 27.1509C25.098 27.1929 25.183 27.2349 25.275 27.2769C25.369 27.3169 25.455 27.3639 25.533 27.4179C25.611 27.4699 25.676 27.5319 25.728 27.6039C25.782 27.6739 25.809 27.7599 25.809 27.8619C25.809 27.9799 25.783 28.0749 25.731 28.1469C25.681 28.2189 25.617 28.2749 25.539 28.3149C25.461 28.3549 25.375 28.3819 25.281 28.3959C25.189 28.4099 25.101 28.4169 25.017 28.4169C24.937 28.4169 24.864 28.4119 24.798 28.4019C24.732 28.3919 24.675 28.3809 24.627 28.3689C24.571 28.3549 24.52 28.3389 24.474 28.3209L24.534 28.0779C24.58 28.0979 24.629 28.1149 24.681 28.1289C24.727 28.1409 24.778 28.1519 24.834 28.1619C24.892 28.1719 24.953 28.1769 25.017 28.1769C25.095 28.1769 25.166 28.1719 25.23 28.1619C25.296 28.1519 25.353 28.1359 25.401 28.1139C25.449 28.0919 25.486 28.0629 25.512 28.0269C25.54 27.9909 25.554 27.9469 25.554 27.8949C25.552 27.8169 25.526 27.7539 25.476 27.7059C25.428 27.6559 25.363 27.6089 25.281 27.5649C25.201 27.5189 25.114 27.4749 25.02 27.4329C24.928 27.3909 24.843 27.3429 24.765 27.2889C24.687 27.2349 24.621 27.1709 24.567 27.0969C24.515 27.0229 24.489 26.9309 24.489 26.8209C24.489 26.7569 24.5 26.6939 24.522 26.6319C24.544 26.5699 24.581 26.5149 24.633 26.4669C24.687 26.4189 24.756 26.3799 24.84 26.3499C24.926 26.3199 25.032 26.3049 25.158 26.3049C25.23 26.3049 25.298 26.3089 25.362 26.3169C25.428 26.3229 25.485 26.3299 25.533 26.3379C25.589 26.3479 25.642 26.3589 25.692 26.3709L25.65 26.6139ZM31.4397 28.4409C31.3697 28.3869 31.2987 28.3299 31.2267 28.2699C31.1567 28.2099 31.0857 28.1479 31.0137 28.0839C30.9197 28.1819 30.8097 28.2619 30.6837 28.3239C30.5597 28.3859 30.4167 28.4169 30.2547 28.4169C30.1667 28.4169 30.0857 28.4059 30.0117 28.3839C29.9377 28.3619 29.8737 28.3299 29.8197 28.2879C29.7657 28.2439 29.7227 28.1889 29.6907 28.1229C29.6607 28.0569 29.6457 27.9799 29.6457 27.8919C29.6457 27.8039 29.6627 27.7259 29.6967 27.6579C29.7327 27.5879 29.7767 27.5259 29.8287 27.4719C29.8807 27.4179 29.9357 27.3709 29.9937 27.3309C30.0517 27.2889 30.1047 27.2529 30.1527 27.2229C30.1167 27.1789 30.0787 27.1339 30.0387 27.0879C29.9987 27.0419 29.9617 26.9939 29.9277 26.9439C29.8957 26.8919 29.8687 26.8369 29.8467 26.7789C29.8267 26.7209 29.8167 26.6579 29.8167 26.5899C29.8167 26.5339 29.8267 26.4779 29.8467 26.4219C29.8687 26.3659 29.9017 26.3159 29.9457 26.2719C29.9917 26.2279 30.0507 26.1919 30.1227 26.1639C30.1967 26.1359 30.2867 26.1219 30.3927 26.1219C30.5007 26.1219 30.5897 26.1349 30.6597 26.1609C30.7317 26.1849 30.7887 26.2179 30.8307 26.2599C30.8727 26.3019 30.9017 26.3519 30.9177 26.4099C30.9357 26.4659 30.9447 26.5259 30.9447 26.5899C30.9447 26.6619 30.9297 26.7309 30.8997 26.7969C30.8697 26.8609 30.8307 26.9209 30.7827 26.9769C30.7367 27.0329 30.6857 27.0839 30.6297 27.1299C30.5737 27.1759 30.5197 27.2159 30.4677 27.2499C30.5637 27.3519 30.6537 27.4459 30.7377 27.5319C30.8237 27.6159 30.9067 27.6949 30.9867 27.7689C31.0407 27.6889 31.0877 27.6049 31.1277 27.5169C31.1677 27.4289 31.2017 27.3429 31.2297 27.2589L31.4277 27.3249C31.3997 27.4189 31.3627 27.5169 31.3167 27.6189C31.2727 27.7209 31.2167 27.8199 31.1487 27.9159C31.2227 27.9819 31.2937 28.0459 31.3617 28.1079C31.4317 28.1679 31.5017 28.2299 31.5717 28.2939L31.4397 28.4409ZM30.2547 28.2069C30.3747 28.2069 30.4837 28.1829 30.5817 28.1349C30.6817 28.0849 30.7707 28.0189 30.8487 27.9369C30.7487 27.8469 30.6507 27.7549 30.5547 27.6609C30.4607 27.5669 30.3717 27.4719 30.2877 27.3759C30.2377 27.4099 30.1887 27.4449 30.1407 27.4809C30.0927 27.5169 30.0497 27.5559 30.0117 27.5979C29.9737 27.6399 29.9427 27.6859 29.9187 27.7359C29.8967 27.7859 29.8857 27.8409 29.8857 27.9009C29.8857 27.9369 29.8927 27.9739 29.9067 28.0119C29.9227 28.0479 29.9457 28.0809 29.9757 28.1109C30.0077 28.1389 30.0467 28.1619 30.0927 28.1799C30.1387 28.1979 30.1927 28.2069 30.2547 28.2069ZM30.0567 26.5899C30.0567 26.6379 30.0627 26.6819 30.0747 26.7219C30.0867 26.7619 30.1037 26.8019 30.1257 26.8419C30.1497 26.8819 30.1797 26.9239 30.2157 26.9679C30.2517 27.0099 30.2937 27.0589 30.3417 27.1149C30.3897 27.0829 30.4347 27.0479 30.4767 27.0099C30.5207 26.9699 30.5597 26.9279 30.5937 26.8839C30.6277 26.8399 30.6547 26.7939 30.6747 26.7459C30.6947 26.6979 30.7047 26.6479 30.7047 26.5959C30.7047 26.5119 30.6827 26.4469 30.6387 26.4009C30.5967 26.3549 30.5147 26.3319 30.3927 26.3319C30.2807 26.3319 30.1967 26.3549 30.1407 26.4009C30.0847 26.4469 30.0567 26.5099 30.0567 26.5899ZM35.4109 26.3319H35.8819C36.1419 26.3319 36.3339 26.3779 36.4579 26.4699C36.5839 26.5619 36.6469 26.7169 36.6469 26.9349C36.6469 27.0549 36.6239 27.1549 36.5779 27.2349C36.5319 27.3149 36.4739 27.3799 36.4039 27.4299C36.3359 27.4779 36.2619 27.5129 36.1819 27.5349C36.1019 27.5549 36.0279 27.5649 35.9599 27.5649H35.6629V28.3779H35.4109V26.3319ZM35.6629 27.3399H35.9389C36.0069 27.3399 36.0679 27.3339 36.1219 27.3219C36.1779 27.3079 36.2259 27.2859 36.2659 27.2559C36.3059 27.2239 36.3369 27.1819 36.3589 27.1299C36.3809 27.0759 36.3919 27.0089 36.3919 26.9289C36.3919 26.8489 36.3799 26.7849 36.3559 26.7369C36.3339 26.6869 36.2999 26.6489 36.2539 26.6229C36.2099 26.5969 36.1539 26.5799 36.0859 26.5719C36.0179 26.5619 35.9389 26.5569 35.8489 26.5569H35.6629V27.3399ZM38.471 26.3319H39.725V26.5629H38.723V27.2169H39.653V27.4419H38.723V28.1469H39.755V28.3779H38.471V26.3319ZM41.6044 26.3319H42.1084C42.2184 26.3319 42.3184 26.3419 42.4084 26.3619C42.5004 26.3799 42.5784 26.4119 42.6424 26.4579C42.7064 26.5019 42.7554 26.5609 42.7894 26.6349C42.8234 26.7089 42.8404 26.8019 42.8404 26.9139C42.8384 27.0379 42.8174 27.1389 42.7774 27.2169C42.7374 27.2929 42.6884 27.3549 42.6304 27.4029C42.5724 27.4489 42.5054 27.4829 42.4294 27.5049V27.5109C42.4374 27.5189 42.4494 27.5339 42.4654 27.5559C42.4834 27.5759 42.4984 27.5939 42.5104 27.6099L43.0894 28.3779H42.7924L42.1984 27.5649H41.8564V28.3779H41.6044V26.3319ZM42.5854 26.9559C42.5854 26.8719 42.5744 26.8039 42.5524 26.7519C42.5324 26.6979 42.5014 26.6569 42.4594 26.6289C42.4194 26.6009 42.3694 26.5819 42.3094 26.5719C42.2494 26.5619 42.1814 26.5569 42.1054 26.5569H41.8564V27.3399H42.1534C42.2314 27.3399 42.2974 27.3299 42.3514 27.3099C42.4054 27.2899 42.4494 27.2629 42.4834 27.2289C42.5174 27.1929 42.5424 27.1519 42.5584 27.1059C42.5744 27.0599 42.5834 27.0099 42.5854 26.9559ZM45.8287 26.6139C45.7807 26.6019 45.7307 26.5909 45.6787 26.5809C45.6327 26.5709 45.5797 26.5629 45.5197 26.5569C45.4617 26.5489 45.4007 26.5449 45.3367 26.5449C45.1887 26.5449 45.0827 26.5679 45.0187 26.6139C44.9547 26.6579 44.9227 26.7269 44.9227 26.8209C44.9247 26.8949 44.9517 26.9579 45.0037 27.0099C45.0557 27.0599 45.1207 27.1069 45.1987 27.1509C45.2767 27.1929 45.3617 27.2349 45.4537 27.2769C45.5477 27.3169 45.6337 27.3639 45.7117 27.4179C45.7897 27.4699 45.8547 27.5319 45.9067 27.6039C45.9607 27.6739 45.9877 27.7599 45.9877 27.8619C45.9877 27.9799 45.9617 28.0749 45.9097 28.1469C45.8597 28.2189 45.7957 28.2749 45.7177 28.3149C45.6397 28.3549 45.5537 28.3819 45.4597 28.3959C45.3677 28.4099 45.2797 28.4169 45.1957 28.4169C45.1157 28.4169 45.0427 28.4119 44.9767 28.4019C44.9107 28.3919 44.8537 28.3809 44.8057 28.3689C44.7497 28.3549 44.6987 28.3389 44.6527 28.3209L44.7127 28.0779C44.7587 28.0979 44.8077 28.1149 44.8597 28.1289C44.9057 28.1409 44.9567 28.1519 45.0127 28.1619C45.0707 28.1719 45.1317 28.1769 45.1957 28.1769C45.2737 28.1769 45.3447 28.1719 45.4087 28.1619C45.4747 28.1519 45.5317 28.1359 45.5797 28.1139C45.6277 28.0919 45.6647 28.0629 45.6907 28.0269C45.7187 27.9909 45.7327 27.9469 45.7327 27.8949C45.7307 27.8169 45.7047 27.7539 45.6547 27.7059C45.6067 27.6559 45.5417 27.6089 45.4597 27.5649C45.3797 27.5189 45.2927 27.4749 45.1987 27.4329C45.1067 27.3909 45.0217 27.3429 44.9437 27.2889C44.8657 27.2349 44.7997 27.1709 44.7457 27.0969C44.6937 27.0229 44.6677 26.9309 44.6677 26.8209C44.6677 26.7569 44.6787 26.6939 44.7007 26.6319C44.7227 26.5699 44.7597 26.5149 44.8117 26.4669C44.8657 26.4189 44.9347 26.3799 45.0187 26.3499C45.1047 26.3199 45.2107 26.3049 45.3367 26.3049C45.4087 26.3049 45.4767 26.3089 45.5407 26.3169C45.6067 26.3229 45.6637 26.3299 45.7117 26.3379C45.7677 26.3479 45.8207 26.3589 45.8707 26.3709L45.8287 26.6139ZM47.6898 27.3549C47.6898 27.1609 47.7198 26.9969 47.7798 26.8629C47.8418 26.7289 47.9198 26.6209 48.0138 26.5389C48.1098 26.4569 48.2158 26.3979 48.3318 26.3619C48.4498 26.3239 48.5648 26.3049 48.6768 26.3049C48.7888 26.3049 48.9028 26.3209 49.0188 26.3529C49.1368 26.3829 49.2428 26.4379 49.3368 26.5179C49.4328 26.5959 49.5108 26.7029 49.5708 26.8389C49.6328 26.9749 49.6638 27.1479 49.6638 27.3579C49.6638 27.5539 49.6328 27.7189 49.5708 27.8529C49.5108 27.9869 49.4328 28.0959 49.3368 28.1799C49.2428 28.2639 49.1368 28.3249 49.0188 28.3629C48.9028 28.3989 48.7888 28.4169 48.6768 28.4169C48.5648 28.4169 48.4498 28.3989 48.3318 28.3629C48.2158 28.3269 48.1098 28.2679 48.0138 28.1859C47.9198 28.1039 47.8418 27.9949 47.7798 27.8589C47.7198 27.7229 47.6898 27.5549 47.6898 27.3549ZM49.3788 27.3699C49.3788 27.0999 49.3158 26.8949 49.1898 26.7549C49.0658 26.6149 48.8988 26.5449 48.6888 26.5449C48.5828 26.5449 48.4858 26.5619 48.3978 26.5959C48.3118 26.6279 48.2368 26.6769 48.1728 26.7429C48.1108 26.8089 48.0618 26.8919 48.0258 26.9919C47.9918 27.0899 47.9748 27.2059 47.9748 27.3399C47.9748 27.6099 48.0368 27.8169 48.1608 27.9609C48.2868 28.1049 48.4548 28.1769 48.6648 28.1769C48.7688 28.1769 48.8648 28.1609 48.9528 28.1289C49.0408 28.0949 49.1158 28.0439 49.1778 27.9759C49.2418 27.9079 49.2908 27.8239 49.3248 27.7239C49.3608 27.6239 49.3788 27.5059 49.3788 27.3699ZM51.5201 26.3319H51.7601L52.8341 27.9549H52.8401C52.8361 27.8969 52.8331 27.8349 52.8311 27.7689C52.8271 27.7129 52.8241 27.6489 52.8221 27.5769C52.8221 27.5029 52.8221 27.4279 52.8221 27.3519V26.3319H53.0621V28.3779H52.8221L51.7481 26.7489H51.7421C51.7441 26.8089 51.7471 26.8719 51.7511 26.9379C51.7531 26.9959 51.7551 27.0609 51.7571 27.1329C51.7591 27.2049 51.7601 27.2789 51.7601 27.3549V28.3779H51.5201V26.3319ZM55.5263 26.3319H55.8383L56.5403 28.3779H56.2793L56.0993 27.8319H55.2683L55.0853 28.3779H54.8243L55.5263 26.3319ZM56.0183 27.5919L55.6883 26.5719H55.6793L55.3463 27.5919H56.0183ZM59.3494 26.6139C59.3014 26.6019 59.2514 26.5909 59.1994 26.5809C59.1534 26.5709 59.1004 26.5629 59.0404 26.5569C58.9824 26.5489 58.9214 26.5449 58.8574 26.5449C58.7094 26.5449 58.6034 26.5679 58.5394 26.6139C58.4754 26.6579 58.4434 26.7269 58.4434 26.8209C58.4454 26.8949 58.4724 26.9579 58.5244 27.0099C58.5764 27.0599 58.6414 27.1069 58.7194 27.1509C58.7974 27.1929 58.8824 27.2349 58.9744 27.2769C59.0684 27.3169 59.1544 27.3639 59.2324 27.4179C59.3104 27.4699 59.3754 27.5319 59.4274 27.6039C59.4814 27.6739 59.5084 27.7599 59.5084 27.8619C59.5084 27.9799 59.4824 28.0749 59.4304 28.1469C59.3804 28.2189 59.3164 28.2749 59.2384 28.3149C59.1604 28.3549 59.0744 28.3819 58.9804 28.3959C58.8884 28.4099 58.8004 28.4169 58.7164 28.4169C58.6364 28.4169 58.5634 28.4119 58.4974 28.4019C58.4314 28.3919 58.3744 28.3809 58.3264 28.3689C58.2704 28.3549 58.2194 28.3389 58.1734 28.3209L58.2334 28.0779C58.2794 28.0979 58.3284 28.1149 58.3804 28.1289C58.4264 28.1409 58.4774 28.1519 58.5334 28.1619C58.5914 28.1719 58.6524 28.1769 58.7164 28.1769C58.7944 28.1769 58.8654 28.1719 58.9294 28.1619C58.9954 28.1519 59.0524 28.1359 59.1004 28.1139C59.1484 28.0919 59.1854 28.0629 59.2114 28.0269C59.2394 27.9909 59.2534 27.9469 59.2534 27.8949C59.2514 27.8169 59.2254 27.7539 59.1754 27.7059C59.1274 27.6559 59.0624 27.6089 58.9804 27.5649C58.9004 27.5189 58.8134 27.4749 58.7194 27.4329C58.6274 27.3909 58.5424 27.3429 58.4644 27.2889C58.3864 27.2349 58.3204 27.1709 58.2664 27.0969C58.2144 27.0229 58.1884 26.9309 58.1884 26.8209C58.1884 26.7569 58.1994 26.6939 58.2214 26.6319C58.2434 26.5699 58.2804 26.5149 58.3324 26.4669C58.3864 26.4189 58.4554 26.3799 58.5394 26.3499C58.6254 26.3199 58.7314 26.3049 58.8574 26.3049C58.9294 26.3049 58.9974 26.3089 59.0614 26.3169C59.1274 26.3229 59.1844 26.3299 59.2324 26.3379C59.2884 26.3479 59.3414 26.3589 59.3914 26.3709L59.3494 26.6139Z" fill="#031928"/>
<path d="M0.596591 23.4858V22.1733L4.72159 16.6677H0.613636V14.7586H7.73864V16.0711L3.61364 21.5767H7.72159V23.4858H0.596591ZM8.89453 23.4858V14.7586H15.1843V16.6677H11.2638V18.1677H14.8604V20.0767H11.2638V21.5767H15.1673V23.4858H8.89453ZM16.3594 23.4858V14.7586H20.1264C20.7741 14.7586 21.3409 14.8765 21.8267 15.1123C22.3125 15.3481 22.6903 15.6875 22.9602 16.1307C23.2301 16.5739 23.3651 17.1052 23.3651 17.7245C23.3651 18.3495 23.2259 18.8765 22.9474 19.3054C22.6719 19.7344 22.2841 20.0583 21.7841 20.277C21.2869 20.4958 20.706 20.6052 20.0412 20.6052H17.7912V18.7642H19.5639C19.8423 18.7642 20.0795 18.7302 20.2756 18.662C20.4744 18.591 20.6264 18.4787 20.7315 18.3253C20.8395 18.1719 20.8935 17.9716 20.8935 17.7245C20.8935 17.4745 20.8395 17.2714 20.7315 17.1151C20.6264 16.956 20.4744 16.8395 20.2756 16.7657C20.0795 16.689 19.8423 16.6506 19.5639 16.6506H18.7287V23.4858H16.3594ZM21.473 19.4802L23.6548 23.4858H21.081L18.9503 19.4802H21.473ZM26.4918 14.7586L28.2816 20.912H28.3498L30.1396 14.7586H32.8157L29.935 23.4858H26.6964L23.8157 14.7586H26.4918ZM36.0256 14.7586V23.4858H33.6562V14.7586H36.0256ZM37.1484 23.4858V14.7586H40.9155C41.5632 14.7586 42.13 14.8765 42.6158 15.1123C43.1016 15.3481 43.4794 15.6875 43.7493 16.1307C44.0192 16.5739 44.1541 17.1052 44.1541 17.7245C44.1541 18.3495 44.0149 18.8765 43.7365 19.3054C43.4609 19.7344 43.0732 20.0583 42.5732 20.277C42.076 20.4958 41.495 20.6052 40.8303 20.6052H38.5803V18.7642H40.353C40.6314 18.7642 40.8686 18.7302 41.0646 18.662C41.2635 18.591 41.4155 18.4787 41.5206 18.3253C41.6286 18.1719 41.6825 17.9716 41.6825 17.7245C41.6825 17.4745 41.6286 17.2714 41.5206 17.1151C41.4155 16.956 41.2635 16.8395 41.0646 16.7657C40.8686 16.689 40.6314 16.6506 40.353 16.6506H39.5178V23.4858H37.1484ZM42.2621 19.4802L44.4439 23.4858H41.87L39.7393 19.4802H42.2621ZM45.1641 23.4858V14.7586H51.4538V16.6677H47.5334V18.1677H51.13V20.0767H47.5334V21.5767H51.4368V23.4858H45.1641ZM55.9869 23.4858H52.6289V14.7586H55.9528C56.8505 14.7586 57.6261 14.9333 58.2795 15.2827C58.9357 15.6293 59.4414 16.1293 59.7965 16.7827C60.1545 17.4333 60.3335 18.2131 60.3335 19.1222C60.3335 20.0313 60.1559 20.8125 59.8008 21.466C59.4457 22.1165 58.9428 22.6165 58.2923 22.966C57.6417 23.3125 56.8732 23.4858 55.9869 23.4858ZM54.9982 21.4745H55.9016C56.3335 21.4745 56.7013 21.4049 57.0053 21.2657C57.3121 21.1265 57.5451 20.8864 57.7042 20.5455C57.8661 20.2046 57.9471 19.7302 57.9471 19.1222C57.9471 18.5142 57.8647 18.0398 57.6999 17.6989C57.538 17.358 57.2994 17.1179 56.984 16.9787C56.6715 16.8395 56.288 16.7699 55.8335 16.7699H54.9982V21.4745Z" fill="#031928"/>
<path d="M44.2552 9.52959L43.6128 1.37988L11.0154 3.94948L11.6578 12.0992" stroke="#031928" stroke-width="2"/>
<path d="M13.6911 33.6902L14.334 41.8449L46.9314 39.2753L46.2885 31.1206" stroke="#031928" stroke-width="2"/>
</g>
<defs>
<clipPath id="clip0_109_58">
<rect width="61" height="43" fill="white"/>
</clipPath>
</defs>
</svg>
