<svg width="61" height="42" viewBox="0 0 61 42" fill="none" xmlns="http://www.w3.org/2000/svg">
<g clip-path="url(#clip0_109_58)">
<path d="M3.11125 25.9079C3.07125 25.8979 3.02958 25.8888 2.98625 25.8804C2.94792 25.8721 2.90375 25.8654 2.85375 25.8604C2.80542 25.8538 2.75458 25.8504 2.70125 25.8504C2.57792 25.8504 2.48958 25.8696 2.43625 25.9079C2.38292 25.9446 2.35625 26.0021 2.35625 26.0804C2.35792 26.1421 2.38042 26.1946 2.42375 26.2379C2.46708 26.2796 2.52125 26.3188 2.58625 26.3554C2.65125 26.3904 2.72208 26.4254 2.79875 26.4604C2.87708 26.4938 2.94875 26.5329 3.01375 26.5779C3.07875 26.6213 3.13292 26.6729 3.17625 26.7329C3.22125 26.7913 3.24375 26.8629 3.24375 26.9479C3.24375 27.0463 3.22208 27.1254 3.17875 27.1854C3.13708 27.2454 3.08375 27.2921 3.01875 27.3254C2.95375 27.3588 2.88208 27.3813 2.80375 27.3929C2.72708 27.4046 2.65375 27.4104 2.58375 27.4104C2.51708 27.4104 2.45625 27.4063 2.40125 27.3979C2.34625 27.3896 2.29875 27.3804 2.25875 27.3704C2.21208 27.3588 2.16958 27.3454 2.13125 27.3304L2.18125 27.1279C2.21958 27.1446 2.26042 27.1588 2.30375 27.1704C2.34208 27.1804 2.38458 27.1896 2.43125 27.1979C2.47958 27.2063 2.53042 27.2104 2.58375 27.2104C2.64875 27.2104 2.70792 27.2063 2.76125 27.1979C2.81625 27.1896 2.86375 27.1763 2.90375 27.1579C2.94375 27.1396 2.97458 27.1154 2.99625 27.0854C3.01958 27.0554 3.03125 27.0188 3.03125 26.9754C3.02958 26.9104 3.00792 26.8579 2.96625 26.8179C2.92625 26.7763 2.87208 26.7371 2.80375 26.7004C2.73708 26.6621 2.66458 26.6254 2.58625 26.5904C2.50958 26.5554 2.43875 26.5154 2.37375 26.4704C2.30875 26.4254 2.25375 26.3721 2.20875 26.3104C2.16542 26.2488 2.14375 26.1721 2.14375 26.0804C2.14375 26.0271 2.15292 25.9746 2.17125 25.9229C2.18958 25.8713 2.22042 25.8254 2.26375 25.7854C2.30875 25.7454 2.36625 25.7129 2.43625 25.6879C2.50792 25.6629 2.59625 25.6504 2.70125 25.6504C2.76125 25.6504 2.81792 25.6538 2.87125 25.6604C2.92625 25.6654 2.97375 25.6713 3.01375 25.6779C3.06042 25.6863 3.10458 25.6954 3.14625 25.7054L3.11125 25.9079ZM5.15467 25.6729H6.19967V25.8654H5.36467V26.4104H6.13967V26.5979H5.36467V27.1854H6.22467V27.3779H5.15467V25.6729ZM8.1658 25.6729H8.5858C8.67747 25.6729 8.7608 25.6813 8.8358 25.6979C8.91247 25.7129 8.97747 25.7396 9.0308 25.7779C9.08413 25.8146 9.12497 25.8638 9.1533 25.9254C9.18163 25.9871 9.1958 26.0646 9.1958 26.1579C9.19413 26.2613 9.17663 26.3454 9.1433 26.4104C9.10997 26.4738 9.06913 26.5254 9.0208 26.5654C8.97247 26.6038 8.91663 26.6321 8.8533 26.6504V26.6554C8.85997 26.6621 8.86997 26.6746 8.8833 26.6929C8.8983 26.7096 8.9108 26.7246 8.9208 26.7379L9.4033 27.3779H9.1558L8.6608 26.7004H8.3758V27.3779H8.1658V25.6729ZM8.9833 26.1929C8.9833 26.1229 8.97413 26.0663 8.9558 26.0229C8.93913 25.9779 8.9133 25.9438 8.8783 25.9204C8.84497 25.8971 8.8033 25.8813 8.7533 25.8729C8.7033 25.8646 8.64663 25.8604 8.5833 25.8604H8.3758V26.5129H8.6233C8.6883 26.5129 8.7433 26.5046 8.7883 26.4879C8.8333 26.4713 8.86997 26.4488 8.8983 26.4204C8.92663 26.3904 8.94747 26.3563 8.9608 26.3179C8.97413 26.2796 8.98163 26.2379 8.9833 26.1929ZM11.0215 25.6729H11.234L11.724 27.1779H11.7265L12.209 25.6729H12.4215L11.854 27.3779H11.589L11.0215 25.6729ZM14.2857 25.6729H14.4957V27.3779H14.2857V25.6729ZM17.6951 25.9129C17.6535 25.8996 17.6093 25.8879 17.5626 25.8779C17.516 25.8663 17.4643 25.8571 17.4076 25.8504C17.3526 25.8421 17.2943 25.8379 17.2326 25.8379C17.1326 25.8379 17.0476 25.8596 16.9776 25.9029C16.9076 25.9463 16.8501 26.0021 16.8051 26.0704C16.7618 26.1371 16.7301 26.2121 16.7101 26.2954C16.6901 26.3788 16.6801 26.4613 16.6801 26.5429C16.6801 26.6463 16.6943 26.7404 16.7226 26.8254C16.7526 26.9088 16.7926 26.9804 16.8426 27.0404C16.8943 27.0988 16.9535 27.1438 17.0201 27.1754C17.0885 27.2071 17.1601 27.2229 17.2351 27.2229C17.3051 27.2229 17.3693 27.2196 17.4276 27.2129C17.486 27.2046 17.536 27.1963 17.5776 27.1879C17.626 27.1779 17.6693 27.1663 17.7076 27.1529L17.7501 27.3304C17.7051 27.3454 17.6551 27.3588 17.6001 27.3704C17.5535 27.3804 17.4993 27.3896 17.4376 27.3979C17.376 27.4063 17.3085 27.4104 17.2351 27.4104C17.1035 27.4104 16.9876 27.3888 16.8876 27.3454C16.7893 27.3021 16.7068 27.2421 16.6401 27.1654C16.5751 27.0871 16.526 26.9954 16.4926 26.8904C16.4593 26.7838 16.4426 26.6671 16.4426 26.5404C16.4426 26.3954 16.4626 26.2679 16.5026 26.1579C16.5426 26.0463 16.5976 25.9529 16.6676 25.8779C16.7376 25.8029 16.821 25.7463 16.9176 25.7079C17.0143 25.6696 17.1201 25.6504 17.2351 25.6504C17.3051 25.6504 17.3701 25.6546 17.4301 25.6629C17.4918 25.6696 17.5476 25.6788 17.5976 25.6904C17.6493 25.7021 17.6968 25.7146 17.7401 25.7279L17.6951 25.9129ZM19.6537 25.6729H19.8637V27.3779H19.6537V25.6729ZM21.8106 26.5254C21.8106 26.3638 21.8356 26.2271 21.8856 26.1154C21.9373 26.0038 22.0023 25.9138 22.0806 25.8454C22.1606 25.7771 22.2489 25.7279 22.3456 25.6979C22.4439 25.6663 22.5398 25.6504 22.6331 25.6504C22.7264 25.6504 22.8214 25.6638 22.9181 25.6904C23.0164 25.7154 23.1048 25.7613 23.1831 25.8279C23.2631 25.8929 23.3281 25.9821 23.3781 26.0954C23.4298 26.2088 23.4556 26.3529 23.4556 26.5279C23.4556 26.6913 23.4298 26.8288 23.3781 26.9404C23.3281 27.0521 23.2631 27.1429 23.1831 27.2129C23.1048 27.2829 23.0164 27.3338 22.9181 27.3654C22.8214 27.3954 22.7264 27.4104 22.6331 27.4104C22.5398 27.4104 22.4439 27.3954 22.3456 27.3654C22.2489 27.3354 22.1606 27.2863 22.0806 27.2179C22.0023 27.1496 21.9373 27.0588 21.8856 26.9454C21.8356 26.8321 21.8106 26.6921 21.8106 26.5254ZM23.2181 26.5379C23.2181 26.3129 23.1656 26.1421 23.0606 26.0254C22.9573 25.9088 22.8181 25.8504 22.6431 25.8504C22.5548 25.8504 22.4739 25.8646 22.4006 25.8929C22.3289 25.9196 22.2664 25.9604 22.2131 26.0154C22.1614 26.0704 22.1206 26.1396 22.0906 26.2229C22.0623 26.3046 22.0481 26.4013 22.0481 26.5129C22.0481 26.7379 22.0998 26.9104 22.2031 27.0304C22.3081 27.1504 22.4481 27.2104 22.6231 27.2104C22.7098 27.2104 22.7898 27.1971 22.8631 27.1704C22.9364 27.1421 22.9989 27.0996 23.0506 27.0429C23.1039 26.9863 23.1448 26.9163 23.1731 26.8329C23.2031 26.7496 23.2181 26.6513 23.2181 26.5379ZM26.275 25.9079C26.235 25.8979 26.1934 25.8888 26.15 25.8804C26.1117 25.8721 26.0675 25.8654 26.0175 25.8604C25.9692 25.8538 25.9184 25.8504 25.865 25.8504C25.7417 25.8504 25.6534 25.8696 25.6 25.9079C25.5467 25.9446 25.52 26.0021 25.52 26.0804C25.5217 26.1421 25.5442 26.1946 25.5875 26.2379C25.6309 26.2796 25.685 26.3188 25.75 26.3554C25.815 26.3904 25.8859 26.4254 25.9625 26.4604C26.0409 26.4938 26.1125 26.5329 26.1775 26.5779C26.2425 26.6213 26.2967 26.6729 26.34 26.7329C26.385 26.7913 26.4075 26.8629 26.4075 26.9479C26.4075 27.0463 26.3859 27.1254 26.3425 27.1854C26.3009 27.2454 26.2475 27.2921 26.1825 27.3254C26.1175 27.3588 26.0459 27.3813 25.9675 27.3929C25.8909 27.4046 25.8175 27.4104 25.7475 27.4104C25.6809 27.4104 25.62 27.4063 25.565 27.3979C25.51 27.3896 25.4625 27.3804 25.4225 27.3704C25.3759 27.3588 25.3334 27.3454 25.295 27.3304L25.345 27.1279C25.3834 27.1446 25.4242 27.1588 25.4675 27.1704C25.5059 27.1804 25.5484 27.1896 25.595 27.1979C25.6434 27.2063 25.6942 27.2104 25.7475 27.2104C25.8125 27.2104 25.8717 27.2063 25.925 27.1979C25.98 27.1896 26.0275 27.1763 26.0675 27.1579C26.1075 27.1396 26.1384 27.1154 26.16 27.0854C26.1834 27.0554 26.195 27.0188 26.195 26.9754C26.1934 26.9104 26.1717 26.8579 26.13 26.8179C26.09 26.7763 26.0359 26.7371 25.9675 26.7004C25.9009 26.6621 25.8284 26.6254 25.75 26.5904C25.6734 26.5554 25.6025 26.5154 25.5375 26.4704C25.4725 26.4254 25.4175 26.3721 25.3725 26.3104C25.3292 26.2488 25.3075 26.1721 25.3075 26.0804C25.3075 26.0271 25.3167 25.9746 25.335 25.9229C25.3534 25.8713 25.3842 25.8254 25.4275 25.7854C25.4725 25.7454 25.53 25.7129 25.6 25.6879C25.6717 25.6629 25.76 25.6504 25.865 25.6504C25.925 25.6504 25.9817 25.6538 26.035 25.6604C26.09 25.6654 26.1375 25.6713 26.1775 25.6779C26.2242 25.6863 26.2684 25.6954 26.31 25.7054L26.275 25.9079ZM31.8997 27.4304C31.8414 27.3854 31.7822 27.3379 31.7222 27.2879C31.6639 27.2379 31.6047 27.1863 31.5447 27.1329C31.4664 27.2146 31.3747 27.2813 31.2697 27.3329C31.1664 27.3846 31.0472 27.4104 30.9122 27.4104C30.8389 27.4104 30.7714 27.4013 30.7097 27.3829C30.6481 27.3646 30.5947 27.3379 30.5497 27.3029C30.5047 27.2663 30.4689 27.2204 30.4422 27.1654C30.4172 27.1104 30.4047 27.0463 30.4047 26.9729C30.4047 26.8996 30.4189 26.8346 30.4472 26.7779C30.4772 26.7196 30.5139 26.6679 30.5572 26.6229C30.6006 26.5779 30.6464 26.5388 30.6947 26.5054C30.7431 26.4704 30.7872 26.4404 30.8272 26.4154C30.7972 26.3788 30.7656 26.3413 30.7322 26.3029C30.6989 26.2646 30.6681 26.2246 30.6397 26.1829C30.6131 26.1396 30.5906 26.0938 30.5722 26.0454C30.5556 25.9971 30.5472 25.9446 30.5472 25.8879C30.5472 25.8413 30.5556 25.7946 30.5722 25.7479C30.5906 25.7013 30.6181 25.6596 30.6547 25.6229C30.6931 25.5863 30.7422 25.5563 30.8022 25.5329C30.8639 25.5096 30.9389 25.4979 31.0272 25.4979C31.1172 25.4979 31.1914 25.5088 31.2497 25.5304C31.3097 25.5504 31.3572 25.5779 31.3922 25.6129C31.4272 25.6479 31.4514 25.6896 31.4647 25.7379C31.4797 25.7846 31.4872 25.8346 31.4872 25.8879C31.4872 25.9479 31.4747 26.0054 31.4497 26.0604C31.4247 26.1138 31.3922 26.1638 31.3522 26.2104C31.3139 26.2571 31.2714 26.2996 31.2247 26.3379C31.1781 26.3763 31.1331 26.4096 31.0897 26.4379C31.1697 26.5229 31.2447 26.6013 31.3147 26.6729C31.3864 26.7429 31.4556 26.8088 31.5222 26.8704C31.5672 26.8038 31.6064 26.7338 31.6397 26.6604C31.6731 26.5871 31.7014 26.5154 31.7247 26.4454L31.8897 26.5004C31.8664 26.5788 31.8356 26.6604 31.7972 26.7454C31.7606 26.8304 31.7139 26.9129 31.6572 26.9929C31.7189 27.0479 31.7781 27.1013 31.8347 27.1529C31.8931 27.2029 31.9514 27.2546 32.0097 27.3079L31.8997 27.4304ZM30.9122 27.2354C31.0122 27.2354 31.1031 27.2154 31.1847 27.1754C31.2681 27.1338 31.3422 27.0788 31.4072 27.0104C31.3239 26.9354 31.2422 26.8588 31.1622 26.7804C31.0839 26.7021 31.0097 26.6229 30.9397 26.5429C30.8981 26.5713 30.8572 26.6004 30.8172 26.6304C30.7772 26.6604 30.7414 26.6929 30.7097 26.7279C30.6781 26.7629 30.6522 26.8013 30.6322 26.8429C30.6139 26.8846 30.6047 26.9304 30.6047 26.9804C30.6047 27.0104 30.6106 27.0413 30.6222 27.0729C30.6356 27.1029 30.6547 27.1304 30.6797 27.1554C30.7064 27.1788 30.7389 27.1979 30.7772 27.2129C30.8156 27.2279 30.8606 27.2354 30.9122 27.2354ZM30.7472 25.8879C30.7472 25.9279 30.7522 25.9646 30.7622 25.9979C30.7722 26.0313 30.7864 26.0646 30.8047 26.0979C30.8247 26.1313 30.8497 26.1663 30.8797 26.2029C30.9097 26.2379 30.9447 26.2788 30.9847 26.3254C31.0247 26.2988 31.0622 26.2696 31.0972 26.2379C31.1339 26.2046 31.1664 26.1696 31.1947 26.1329C31.2231 26.0963 31.2456 26.0579 31.2622 26.0179C31.2789 25.9779 31.2872 25.9363 31.2872 25.8929C31.2872 25.8229 31.2689 25.7688 31.2322 25.7304C31.1972 25.6921 31.1289 25.6729 31.0272 25.6729C30.9339 25.6729 30.8639 25.6921 30.8172 25.7304C30.7706 25.7688 30.7472 25.8213 30.7472 25.8879ZM36.0091 25.6729H36.4016C36.6182 25.6729 36.7782 25.7113 36.8816 25.7879C36.9866 25.8646 37.0391 25.9938 37.0391 26.1754C37.0391 26.2754 37.0199 26.3588 36.9816 26.4254C36.9432 26.4921 36.8949 26.5463 36.8366 26.5879C36.7799 26.6279 36.7182 26.6571 36.6516 26.6754C36.5849 26.6921 36.5232 26.7004 36.4666 26.7004H36.2191V27.3779H36.0091V25.6729ZM36.2191 26.5129H36.4491C36.5057 26.5129 36.5566 26.5079 36.6016 26.4979C36.6482 26.4863 36.6882 26.4679 36.7216 26.4429C36.7549 26.4163 36.7807 26.3813 36.7991 26.3379C36.8174 26.2929 36.8266 26.2371 36.8266 26.1704C36.8266 26.1038 36.8166 26.0504 36.7966 26.0104C36.7782 25.9688 36.7499 25.9371 36.7116 25.9154C36.6749 25.8938 36.6282 25.8796 36.5716 25.8729C36.5149 25.8646 36.4491 25.8604 36.3741 25.8604H36.2191V26.5129ZM38.9592 25.6729H40.0042V25.8654H39.1692V26.4104H39.9442V26.5979H39.1692V27.1854H40.0292V27.3779H38.9592V25.6729ZM41.9703 25.6729H42.3903C42.482 25.6729 42.5653 25.6813 42.6403 25.6979C42.717 25.7129 42.782 25.7396 42.8353 25.7779C42.8886 25.8146 42.9295 25.8638 42.9578 25.9254C42.9861 25.9871 43.0003 26.0646 43.0003 26.1579C42.9986 26.2613 42.9811 26.3454 42.9478 26.4104C42.9145 26.4738 42.8736 26.5254 42.8253 26.5654C42.777 26.6038 42.7211 26.6321 42.6578 26.6504V26.6554C42.6645 26.6621 42.6745 26.6746 42.6878 26.6929C42.7028 26.7096 42.7153 26.7246 42.7253 26.7379L43.2078 27.3779H42.9603L42.4653 26.7004H42.1803V27.3779H41.9703V25.6729ZM42.7878 26.1929C42.7878 26.1229 42.7786 26.0663 42.7603 26.0229C42.7436 25.9779 42.7178 25.9438 42.6828 25.9204C42.6495 25.8971 42.6078 25.8813 42.5578 25.8729C42.5078 25.8646 42.4511 25.8604 42.3878 25.8604H42.1803V26.5129H42.4278C42.4928 26.5129 42.5478 26.5046 42.5928 26.4879C42.6378 26.4713 42.6745 26.4488 42.7028 26.4204C42.7311 26.3904 42.752 26.3563 42.7653 26.3179C42.7786 26.2796 42.7861 26.2379 42.7878 26.1929ZM45.8905 25.9079C45.8505 25.8979 45.8089 25.8888 45.7655 25.8804C45.7272 25.8721 45.683 25.8654 45.633 25.8604C45.5847 25.8538 45.5339 25.8504 45.4805 25.8504C45.3572 25.8504 45.2689 25.8696 45.2155 25.9079C45.1622 25.9446 45.1355 26.0021 45.1355 26.0804C45.1372 26.1421 45.1597 26.1946 45.203 26.2379C45.2464 26.2796 45.3005 26.3188 45.3655 26.3554C45.4305 26.3904 45.5014 26.4254 45.578 26.4604C45.6564 26.4938 45.728 26.5329 45.793 26.5779C45.858 26.6213 45.9122 26.6729 45.9555 26.7329C46.0005 26.7913 46.023 26.8629 46.023 26.9479C46.023 27.0463 46.0014 27.1254 45.958 27.1854C45.9164 27.2454 45.863 27.2921 45.798 27.3254C45.733 27.3588 45.6614 27.3813 45.583 27.3929C45.5064 27.4046 45.433 27.4104 45.363 27.4104C45.2964 27.4104 45.2355 27.4063 45.1805 27.3979C45.1255 27.3896 45.078 27.3804 45.038 27.3704C44.9914 27.3588 44.9489 27.3454 44.9105 27.3304L44.9605 27.1279C44.9989 27.1446 45.0397 27.1588 45.083 27.1704C45.1214 27.1804 45.1639 27.1896 45.2105 27.1979C45.2589 27.2063 45.3097 27.2104 45.363 27.2104C45.428 27.2104 45.4872 27.2063 45.5405 27.1979C45.5955 27.1896 45.643 27.1763 45.683 27.1579C45.723 27.1396 45.7539 27.1154 45.7755 27.0854C45.7989 27.0554 45.8105 27.0188 45.8105 26.9754C45.8089 26.9104 45.7872 26.8579 45.7455 26.8179C45.7055 26.7763 45.6514 26.7371 45.583 26.7004C45.5164 26.6621 45.4439 26.6254 45.3655 26.5904C45.2889 26.5554 45.218 26.5154 45.153 26.4704C45.088 26.4254 45.033 26.3721 44.988 26.3104C44.9447 26.2488 44.923 26.1721 44.923 26.0804C44.923 26.0271 44.9322 25.9746 44.9505 25.9229C44.9689 25.8713 44.9997 25.8254 45.043 25.7854C45.088 25.7454 45.1455 25.7129 45.2155 25.6879C45.2872 25.6629 45.3755 25.6504 45.4805 25.6504C45.5405 25.6504 45.5972 25.6538 45.6505 25.6604C45.7055 25.6654 45.753 25.6713 45.793 25.6779C45.8397 25.6863 45.8839 25.6954 45.9255 25.7054L45.8905 25.9079ZM47.8415 26.5254C47.8415 26.3638 47.8665 26.2271 47.9165 26.1154C47.9681 26.0038 48.0331 25.9138 48.1115 25.8454C48.1915 25.7771 48.2798 25.7279 48.3765 25.6979C48.4748 25.6663 48.5706 25.6504 48.664 25.6504C48.7573 25.6504 48.8523 25.6638 48.949 25.6904C49.0473 25.7154 49.1356 25.7613 49.214 25.8279C49.294 25.8929 49.359 25.9821 49.409 26.0954C49.4606 26.2088 49.4865 26.3529 49.4865 26.5279C49.4865 26.6913 49.4606 26.8288 49.409 26.9404C49.359 27.0521 49.294 27.1429 49.214 27.2129C49.1356 27.2829 49.0473 27.3338 48.949 27.3654C48.8523 27.3954 48.7573 27.4104 48.664 27.4104C48.5706 27.4104 48.4748 27.3954 48.3765 27.3654C48.2798 27.3354 48.1915 27.2863 48.1115 27.2179C48.0331 27.1496 47.9681 27.0588 47.9165 26.9454C47.8665 26.8321 47.8415 26.6921 47.8415 26.5254ZM49.249 26.5379C49.249 26.3129 49.1965 26.1421 49.0915 26.0254C48.9881 25.9088 48.849 25.8504 48.674 25.8504C48.5856 25.8504 48.5048 25.8646 48.4315 25.8929C48.3598 25.9196 48.2973 25.9604 48.244 26.0154C48.1923 26.0704 48.1515 26.1396 48.1215 26.2229C48.0931 26.3046 48.079 26.4013 48.079 26.5129C48.079 26.7379 48.1306 26.9104 48.234 27.0304C48.339 27.1504 48.479 27.2104 48.654 27.2104C48.7406 27.2104 48.8206 27.1971 48.894 27.1704C48.9673 27.1421 49.0298 27.0996 49.0815 27.0429C49.1348 26.9863 49.1756 26.9163 49.204 26.8329C49.234 26.7496 49.249 26.6513 49.249 26.5379ZM51.4334 25.6729H51.6334L52.5284 27.0254H52.5334C52.53 26.9771 52.5275 26.9254 52.5259 26.8704C52.5225 26.8238 52.52 26.7704 52.5184 26.7104C52.5184 26.6488 52.5184 26.5863 52.5184 26.5229V25.6729H52.7184V27.3779H52.5184L51.6234 26.0204H51.6184C51.62 26.0704 51.6225 26.1229 51.6259 26.1779C51.6275 26.2263 51.6292 26.2804 51.6309 26.3404C51.6325 26.4004 51.6334 26.4621 51.6334 26.5254V27.3779H51.4334V25.6729ZM55.172 25.6729H55.432L56.017 27.3779H55.7995L55.6495 26.9229H54.957L54.8045 27.3779H54.587L55.172 25.6729ZM55.582 26.7229L55.307 25.8729H55.2995L55.022 26.7229H55.582ZM58.7578 25.9079C58.7178 25.8979 58.6762 25.8888 58.6328 25.8804C58.5945 25.8721 58.5503 25.8654 58.5003 25.8604C58.452 25.8538 58.4012 25.8504 58.3478 25.8504C58.2245 25.8504 58.1362 25.8696 58.0828 25.9079C58.0295 25.9446 58.0028 26.0021 58.0028 26.0804C58.0045 26.1421 58.027 26.1946 58.0703 26.2379C58.1137 26.2796 58.1678 26.3188 58.2328 26.3554C58.2978 26.3904 58.3687 26.4254 58.4453 26.4604C58.5237 26.4938 58.5953 26.5329 58.6603 26.5779C58.7253 26.6213 58.7795 26.6729 58.8228 26.7329C58.8678 26.7913 58.8903 26.8629 58.8903 26.9479C58.8903 27.0463 58.8687 27.1254 58.8253 27.1854C58.7837 27.2454 58.7303 27.2921 58.6653 27.3254C58.6003 27.3588 58.5287 27.3813 58.4503 27.3929C58.3737 27.4046 58.3003 27.4104 58.2303 27.4104C58.1637 27.4104 58.1028 27.4063 58.0478 27.3979C57.9928 27.3896 57.9453 27.3804 57.9053 27.3704C57.8587 27.3588 57.8162 27.3454 57.7778 27.3304L57.8278 27.1279C57.8662 27.1446 57.907 27.1588 57.9503 27.1704C57.9887 27.1804 58.0312 27.1896 58.0778 27.1979C58.1262 27.2063 58.177 27.2104 58.2303 27.2104C58.2953 27.2104 58.3545 27.2063 58.4078 27.1979C58.4628 27.1896 58.5103 27.1763 58.5503 27.1579C58.5903 27.1396 58.6212 27.1154 58.6428 27.0854C58.6662 27.0554 58.6778 27.0188 58.6778 26.9754C58.6762 26.9104 58.6545 26.8579 58.6128 26.8179C58.5728 26.7763 58.5187 26.7371 58.4503 26.7004C58.3837 26.6621 58.3112 26.6254 58.2328 26.5904C58.1562 26.5554 58.0853 26.5154 58.0203 26.4704C57.9553 26.4254 57.9003 26.3721 57.8553 26.3104C57.812 26.2488 57.7903 26.1721 57.7903 26.0804C57.7903 26.0271 57.7995 25.9746 57.8178 25.9229C57.8362 25.8713 57.867 25.8254 57.9103 25.7854C57.9553 25.7454 58.0128 25.7129 58.0828 25.6879C58.1545 25.6629 58.2428 25.6504 58.3478 25.6504C58.4078 25.6504 58.4645 25.6538 58.5178 25.6604C58.5728 25.6654 58.6203 25.6713 58.6603 25.6779C58.707 25.6863 58.7512 25.6954 58.7928 25.7054L58.7578 25.9079Z" fill="white"/>
<path d="M0.596591 23.4863V22.1738L4.72159 16.6681H0.613636V14.7591H7.73864V16.0716L3.61364 21.5772H7.72159V23.4863H0.596591ZM8.89453 23.4863V14.7591H15.1843V16.6681H11.2638V18.1681H14.8604V20.0772H11.2638V21.5772H15.1673V23.4863H8.89453ZM16.3594 23.4863V14.7591H20.1264C20.7741 14.7591 21.3409 14.877 21.8267 15.1127C22.3125 15.3485 22.6903 15.688 22.9602 16.1312C23.2301 16.5744 23.3651 17.1056 23.3651 17.725C23.3651 18.35 23.2259 18.877 22.9474 19.3059C22.6719 19.7349 22.2841 20.0588 21.7841 20.2775C21.2869 20.4963 20.706 20.6056 20.0412 20.6056H17.7912V18.7647H19.5639C19.8423 18.7647 20.0795 18.7306 20.2756 18.6625C20.4744 18.5914 20.6264 18.4792 20.7315 18.3258C20.8395 18.1724 20.8935 17.9721 20.8935 17.725C20.8935 17.475 20.8395 17.2718 20.7315 17.1156C20.6264 16.9565 20.4744 16.84 20.2756 16.7662C20.0795 16.6895 19.8423 16.6511 19.5639 16.6511H18.7287V23.4863H16.3594ZM21.473 19.4806L23.6548 23.4863H21.081L18.9503 19.4806H21.473ZM26.4918 14.7591L28.2816 20.9125H28.3498L30.1396 14.7591H32.8157L29.935 23.4863H26.6964L23.8157 14.7591H26.4918ZM36.0256 14.7591V23.4863H33.6562V14.7591H36.0256ZM37.1484 23.4863V14.7591H40.9155C41.5632 14.7591 42.13 14.877 42.6158 15.1127C43.1016 15.3485 43.4794 15.688 43.7493 16.1312C44.0192 16.5744 44.1541 17.1056 44.1541 17.725C44.1541 18.35 44.0149 18.877 43.7365 19.3059C43.4609 19.7349 43.0732 20.0588 42.5732 20.2775C42.076 20.4963 41.495 20.6056 40.8303 20.6056H38.5803V18.7647H40.353C40.6314 18.7647 40.8686 18.7306 41.0646 18.6625C41.2635 18.5914 41.4155 18.4792 41.5206 18.3258C41.6286 18.1724 41.6825 17.9721 41.6825 17.725C41.6825 17.475 41.6286 17.2718 41.5206 17.1156C41.4155 16.9565 41.2635 16.84 41.0646 16.7662C40.8686 16.6895 40.6314 16.6511 40.353 16.6511H39.5178V23.4863H37.1484ZM42.2621 19.4806L44.4439 23.4863H41.87L39.7393 19.4806H42.2621ZM45.1641 23.4863V14.7591H51.4538V16.6681H47.5334V18.1681H51.13V20.0772H47.5334V21.5772H51.4368V23.4863H45.1641ZM55.9869 23.4863H52.6289V14.7591H55.9528C56.8505 14.7591 57.6261 14.9338 58.2795 15.2832C58.9357 15.6298 59.4414 16.1298 59.7965 16.7832C60.1545 17.4338 60.3335 18.2136 60.3335 19.1227C60.3335 20.0318 60.1559 20.813 59.8008 21.4664C59.4457 22.117 58.9428 22.617 58.2923 22.9664C57.6417 23.313 56.8732 23.4863 55.9869 23.4863ZM54.9982 21.475H55.9016C56.3335 21.475 56.7013 21.4054 57.0053 21.2662C57.3121 21.127 57.5451 20.8869 57.7042 20.546C57.8661 20.2051 57.9471 19.7306 57.9471 19.1227C57.9471 18.5147 57.8647 18.0403 57.6999 17.6994C57.538 17.3585 57.2994 17.1184 56.984 16.9792C56.6715 16.84 56.288 16.7704 55.8335 16.7704H54.9982V21.475Z" fill="white"/>
<path d="M44.2552 9.52959L43.6128 1.37988L11.0154 3.94948L11.6578 12.0992" stroke="#4DABEA"/>
<path d="M13.6911 32.6902L14.334 40.8449L46.9314 38.2753L46.2885 30.1206" stroke="#4DABEA"/>
</g>
<defs>
<clipPath id="clip0_109_58">
<rect width="61" height="42" fill="white"/>
</clipPath>
</defs>
</svg>
